<?xml version="1.0" standalone="no"?>
<!DOCTYPE svg PUBLIC "-//W3C//DTD SVG 20010904//EN"
 "http://www.w3.org/TR/2001/REC-SVG-20010904/DTD/svg10.dtd">
<svg version="1.0" xmlns="http://www.w3.org/2000/svg"
 width="512.000000pt" height="512.000000pt" viewBox="0 0 512.000000 512.000000"
 preserveAspectRatio="xMidYMid meet">

<g transform="translate(0.000000,512.000000) scale(0.100000,-0.100000)"
fill="#000000" stroke="none">
<path d="M633 3782 l-633 -317 0 -950 0 -950 634 -272 634 -271 1884 213
c1035 118 1902 217 1926 220 l42 6 0 1054 0 1055 -22 5 c-13 3 -869 120 -1903
260 -1034 141 -1891 257 -1905 260 -18 3 -199 -83 -657 -313z m2537 -115
l1775 -243 3 -907 c1 -499 -2 -907 -6 -907 -5 0 -800 -90 -1768 -200 -967
-110 -1769 -200 -1781 -200 l-23 0 0 1350 c0 1074 3 1350 13 1350 6 -1 811
-110 1787 -243z m-1982 -1771 l-3 -653 -250 107 -250 107 -3 1079 -2 1079 252
126 253 126 3 -659 c1 -363 1 -953 0 -1312z m-678 635 l0 -999 -167 72 -168
72 -3 842 -2 842 167 84 c93 47 169 85 171 85 1 1 2 -449 2 -998z"/>
<path d="M1585 3658 c-46 -26 -44 13 -45 -1100 0 -1040 0 -1058 20 -1078 11
-11 30 -22 42 -25 42 -10 3111 250 3135 266 13 7 27 25 33 39 7 17 10 268 8
772 l-3 747 -22 23 c-21 20 -105 31 -1575 195 -854 95 -1557 172 -1563 172 -5
0 -19 -5 -30 -11z m290 -188 c55 -6 117 -13 138 -16 l37 -6 0 -894 0 -894 -22
-4 c-21 -4 -277 -26 -305 -26 -10 0 -13 193 -13 930 l0 931 33 -5 c17 -3 77
-10 132 -16z m530 -58 l150 -17 3 -847 2 -846 -47 -6 c-27 -3 -82 -8 -123 -11
-41 -3 -96 -8 -122 -11 l-48 -6 0 881 c0 833 1 881 18 880 9 0 85 -8 167 -17z
m563 -63 l102 -12 0 -798 c0 -721 -2 -799 -16 -799 -22 0 -252 -19 -291 -24
l-33 -5 0 831 0 831 68 -6 c37 -4 113 -12 170 -18z m437 -49 c55 -6 117 -13
138 -16 l37 -6 0 -747 0 -748 -147 -11 c-82 -7 -158 -12 -170 -12 l-23 0 0
780 0 781 33 -5 c17 -3 77 -10 132 -16z m507 -55 c79 -9 153 -18 166 -21 l22
-4 0 -695 0 -694 -32 -5 c-33 -5 -276 -26 -303 -26 -13 0 -15 92 -15 730 0
475 3 730 10 730 5 0 74 -7 152 -15z m546 -62 l152 -16 0 -649 c0 -356 -3
-648 -7 -648 -15 0 -238 -20 -285 -25 l-48 -6 0 681 c0 641 1 680 18 680 9 0
86 -8 170 -17z"/>
<path d="M883 2876 l-28 -24 0 -377 0 -377 28 -24 c37 -31 81 -31 112 1 l25
24 0 376 0 376 -25 24 c-31 32 -75 32 -112 1z"/>
<path d="M285 2875 l-25 -24 0 -334 c0 -333 0 -334 22 -354 34 -30 55 -34 93
-19 53 23 57 49 53 399 l-3 309 -28 24 c-37 31 -81 31 -112 -1z"/>
</g>
</svg>
