<?xml version="1.0" encoding="UTF-8"?><svg id="katman_1" xmlns="http://www.w3.org/2000/svg" viewBox="0 0 64.3 40.8"><defs><style>.cls-1{fill:#fff;}</style></defs><path class="cls-1" d="M4.4,0h0L59.8,.1c.7,0,1.3,.2,1.9,.5l-8.9,9.2-9.2,9.5-9.1,9.4c-.4,.3-.5,.5-.8,.6-.4,.2-.9,.3-1.3,.3s-.8-.2-1.2-.4c-.3-.2-.7-.5-.8-.6l-7.9-8.1-.5-.6-.3-.3-.2-.2-.2-.2L12.1,9.7,2.9,.3c.5-.2,1-.3,1.5-.3Z"/><path class="cls-1" d="M0,35.7V5C0,3.5,.6,2.1,1.6,1.2l.1,.1L10.9,10.8l9.2,9.5,.2,.2-8.4,8.1L2.4,37.8l-1.3,1.2C.4,38.1,0,36.9,0,35.7Z"/><path class="cls-1" d="M59.8,40.8l-55.4-.1c-.8,0-1.5-.3-2.1-.7l1.2-1.2,9.5-9.2,8.4-8.1,8,8.2c.4,.3,.6,.5,.9,.7,.7,.3,1.4,.6,2.1,.6,.8,0,1.5-.3,2.1-.5,.4-.2,.7-.5,1.1-.8l7.9-8.1,8.7,8.4,9.5,9.2,.6,.6c-.7,.6-1.6,1-2.5,1Z"/><path class="cls-1" d="M64.2,35.8c0,1.1-.3,2.1-.8,2.9l-.6-.5-9.5-9.2-8.7-8.6,.2-.2,9.2-9.5L63,1.4c.8,.9,1.3,2.2,1.3,3.5-.1,.2-.1,30.9-.1,30.9Z"/></svg>