<?xml version="1.0" encoding="UTF-8"?><svg id="katman_1" xmlns="http://www.w3.org/2000/svg" viewBox="0 0 64.3 40.8"><defs><style>.cls-1{fill:#fff;}</style></defs><path class="cls-1" d="M51.2,34.87l-2.54,2.54c-.48,.48-1.72,.69-1.79,.69-7.84,.07-15.47-3.02-21.1-8.59-5.57-5.64-8.73-13.27-8.66-21.24,0,0,.27-1.31,.76-1.72l2.54-2.54c.89-.89,2.68-1.37,3.92-.89l.55,.21c1.24,.41,2.54,1.79,2.82,3.02l1.24,4.61c.34,1.24-.14,3.02-1.03,3.92l-1.65,1.65c1.58,6.12,6.39,10.86,12.44,12.51l1.65-1.65c.89-.89,2.68-1.37,3.92-1.03l4.61,1.24c1.24,.34,2.61,1.65,3.02,2.82l.21,.55c.48,1.31,.07,3.02-.89,3.92Z"/></svg>