<?xml version="1.0" encoding="utf-8"?>
<!-- Generator: Adobe Illustrator 26.4.1, SVG Export Plug-In . SVG Version: 6.00 Build 0)  -->
<svg version="1.1" id="katman_1" xmlns="http://www.w3.org/2000/svg" xmlns:xlink="http://www.w3.org/1999/xlink" x="0px" y="0px"
	 viewBox="0 0 82.7 82.7" style="enable-background:new 0 0 82.7 82.7;" xml:space="preserve">
<style type="text/css">
	.st0{fill:#09CE17;}
	.st1{fill-rule:evenodd;clip-rule:evenodd;fill:#FCFCFC;}
	.st2{fill-rule:evenodd;clip-rule:evenodd;fill:#FDFDFD;}
</style>
<g>
	<path class="st0" d="M82.7,41.3c0,22.8-18.5,41.3-41.3,41.3S0,64.2,0,41.3S18.5,0,41.3,0S82.7,18.5,82.7,41.3z"/>
	<g>
		<path class="st1" d="M65.3,35.6c-2.7-11.2-12.3-18.8-23.9-18.9c-1.5,0-3.1,0.1-4.7,0.5C20.4,20.4,12,38.4,19.9,52.9
			c0.2,0.4,0.2,0.7,0.1,1.1c-1,3.8-2.1,7.7-3.1,11.5c-0.1,0.4,0,0.6,0.5,0.5c4-1,7.9-2.1,11.9-3.1c0.3-0.1,0.6,0,0.9,0.1
			c5.1,2.6,10.5,3.4,16.1,2.3C59.7,62.6,68.5,48.9,65.3,35.6L65.3,35.6z M44.8,61.3c-1.1,0.2-2.2,0.3-2.8,0.3c-4.3,0-7.8-1-11.1-2.9
			c-0.4-0.2-0.8-0.3-1.3-0.2c-2.2,0.6-4.4,1.1-6.5,1.7c-0.5,0.1-0.5,0-0.4-0.4c0.6-2.1,1.1-4.1,1.7-6.2c0.2-0.6,0.1-1-0.2-1.5
			c-4.5-7.2-4.3-16.2,0.7-22.8c5.2-6.9,12.3-9.8,20.7-8c8.3,1.8,13.7,7.1,15.6,15.4C63.9,48.1,56.2,59.4,44.8,61.3L44.8,61.3z"/>
		<path class="st2" d="M47.7,52.9c-0.9,0-1.7-0.2-2.5-0.4c-5.6-1.6-9.9-5.2-13.2-9.8c-1.3-1.7-2.5-3.5-2.9-5.7
			c-0.5-2.6,0.3-4.8,2.2-6.6c0.6-0.6,2.5-0.8,3.2-0.5c0.3,0.1,0.5,0.4,0.6,0.6c0.7,1.7,1.4,3.4,2.1,5.1c0.1,0.3,0.1,0.6-0.1,1
			c-0.4,0.8-0.9,1.4-1.5,2c-0.4,0.5-0.5,0.9-0.1,1.4c2,3.3,4.7,5.7,8.3,7.2c0.5,0.2,0.9,0.1,1.3-0.3c0.6-0.7,1.2-1.5,1.8-2.2
			c0.4-0.5,0.8-0.6,1.4-0.4c1.2,0.5,2.4,1.1,3.6,1.7c0.3,0.1,0.5,0.2,0.8,0.4c1.2,0.6,1.2,0.6,1.1,2c-0.2,2.6-2.2,3.9-4.5,4.5
			C48.8,53,48.3,53,47.7,52.9L47.7,52.9z"/>
	</g>
</g>
</svg>
